<svg width="127" height="167" viewBox="0 0 127 167" fill="none" xmlns="http://www.w3.org/2000/svg">
<path d="M121.314 0.403683C123.91 -0.891524 126.941 1.09764 126.77 3.98418L119.825 120.718C119.654 123.605 116.408 125.224 113.983 123.632L15.9173 59.2776C13.4924 57.6863 13.707 54.0781 16.3037 52.7829L121.314 0.403683Z" fill="white"/>
<path d="M5.40175 116.113C2.78192 117.361 -0.21245 115.318 0.0118831 112.435L3.17778 71.7488C3.40212 68.8658 6.6769 67.3058 9.0724 68.9407L42.8789 92.0134C45.2744 93.6483 44.994 97.252 42.3742 98.5L5.40175 116.113Z" fill="white"/>
<path d="M52.3459 166.612C49.7374 167.883 46.7247 165.866 46.923 162.981L51.0159 103.443C51.2142 100.558 54.4748 98.9689 56.885 100.582L106.626 133.881C109.037 135.494 108.789 139.1 106.18 140.371L52.3459 166.612Z" fill="white"/>
</svg>
