<svg width="45" height="60" viewBox="0 0 45 60" fill="none" xmlns="http://www.w3.org/2000/svg">
<path d="M40.5888 1.11196C42.6536 0.0775268 45.0639 1.66619 44.9273 3.97155L42.7906 40.0469C42.6541 42.3522 40.0731 43.6453 38.1449 42.3743L7.97108 22.4862C6.04285 21.2153 6.21353 18.3336 8.27831 17.2992L40.5888 1.11196Z" fill="#C4C4C4"/>
<path d="M4.86429 40.1176C2.78108 41.1143 0.400035 39.4822 0.578419 37.1797L1.26423 28.3274C1.44262 26.0249 4.04664 24.779 5.95147 26.0847L13.2748 31.1048C15.1796 32.4105 14.9567 35.2886 12.8735 36.2854L4.86429 40.1176Z" fill="#C4C4C4"/>
<path d="M20.1194 58.9464C18.0452 59.9619 15.6496 58.3511 15.8073 56.0471L16.9601 39.2046C17.1178 36.9006 19.7105 35.6313 21.627 36.9199L35.6367 46.3395C37.5531 47.628 37.356 50.508 35.2818 51.5235L20.1194 58.9464Z" fill="#C4C4C4"/>
</svg>
