<svg width="253" height="36" viewBox="0 0 253 36" fill="none" xmlns="http://www.w3.org/2000/svg">
<path fill-rule="evenodd" clip-rule="evenodd" d="M27.8059 0.472879V8.95132H18.9663V35.669H8.83957V8.95132H0V0.472879H27.8059ZM9.83957 7.95132V34.669H17.9663V7.95132H26.8059V1.47288H1V7.95132H9.83957ZM60.7794 0.472879V35.669H50.6527V22.0028H40.0111V35.669H29.8844V0.472879H40.0111V13.4771H50.6527V0.472879H60.7794ZM51.6527 14.4771H39.0111V1.47288H30.8844V34.669H39.0111V21.0028H51.6527V34.669H59.7794V1.47288H51.6527V14.4771ZM85.6559 13.6662V21.9082H74.7728V27.1905H87.0816V35.669H64.6461V0.472879H87.0816V8.95132H74.7728V13.6662H85.6559ZM73.7728 7.95132H86.0816V1.47288H65.6461V34.669H86.0816V28.1905H73.7728V20.9082H84.6559V14.6662H73.7728V7.95132ZM101.48 30.9125C100.202 29.1825 99.5471 27.1185 99.4787 24.7676L99.4487 23.7385H110.03L110.122 24.636C110.23 25.6792 110.576 26.3702 111.074 26.8275C111.583 27.2638 112.282 27.5216 113.262 27.5216C114.318 27.5216 115.025 27.2883 115.493 26.9334C115.928 26.575 116.159 26.1013 116.159 25.4006C116.159 24.8422 115.978 24.433 115.619 24.0959L115.609 24.0861L115.599 24.076C115.166 23.6453 114.598 23.2703 113.872 22.9648L113.866 22.962L113.859 22.9592C113.124 22.6372 112.03 22.2569 110.554 21.8197L110.545 21.8169C108.363 21.1462 106.551 20.4667 105.126 19.7743C103.613 19.0388 102.321 17.9563 101.25 16.548C100.103 15.0378 99.5733 13.1203 99.5733 10.8832C99.5733 7.51639 100.817 4.80003 103.334 2.85862C105.801 0.923999 108.966 0 112.74 0C116.572 0 119.771 0.921739 122.24 2.85862C124.744 4.79007 126.066 7.50127 126.237 10.8798L126.291 11.9305H115.504L115.448 10.9895C115.399 10.1533 115.106 9.59359 114.623 9.19672L114.614 9.18869L114.604 9.18042C114.089 8.73509 113.401 8.47844 112.454 8.47844C111.661 8.47844 111.124 8.69014 110.743 9.02923L110.732 9.0392L110.72 9.04883C110.399 9.31788 110.175 9.74468 110.175 10.5049C110.175 11.1828 110.459 11.7097 111.205 12.1502C112.12 12.6912 113.619 13.3105 115.755 13.998L115.767 14.0021C117.943 14.7342 119.731 15.4437 121.117 16.1331C122.623 16.8656 123.912 17.9271 124.982 19.3007C126.131 20.7764 126.666 22.6323 126.666 24.7858C126.666 26.8583 126.126 28.7617 125.041 30.4708C123.98 32.1919 122.436 33.5389 120.456 34.524C118.453 35.5205 116.124 36 113.5 36C110.952 36 108.635 35.5883 106.564 34.7438C104.479 33.8933 102.776 32.6214 101.488 30.923L101.48 30.9125ZM124.193 29.9402C125.175 28.3955 125.666 26.6773 125.666 24.7858C125.666 22.7997 125.175 21.1762 124.193 19.9152C123.211 18.6541 122.039 17.6926 120.676 17.0306C119.346 16.3686 117.603 15.675 115.448 14.9499C113.294 14.2564 111.71 13.6101 110.696 13.0111C109.682 12.4121 109.175 11.5767 109.175 10.5049C109.175 9.52758 109.476 8.78674 110.078 8.28234C110.68 7.74641 111.472 7.47844 112.454 7.47844C113.595 7.47844 114.53 7.79369 115.258 8.4242C115.987 9.02318 116.383 9.8586 116.447 10.9305H125.239C125.221 10.5888 125.191 10.2555 125.149 9.93046C124.804 7.28632 123.63 5.19221 121.627 3.64812C119.377 1.88271 116.415 1 112.74 1C109.128 1 106.197 1.88271 103.948 3.64812C101.698 5.38201 100.573 7.79369 100.573 10.8832C100.573 12.9638 101.064 14.6504 102.047 15.943C103.029 17.2355 104.201 18.2128 105.563 18.8748C106.926 19.5369 108.684 20.1989 110.839 20.8609C112.328 21.3023 113.468 21.6963 114.26 22.0431C115.084 22.3899 115.765 22.8312 116.304 23.3672C116.874 23.9031 117.159 24.5809 117.159 25.4006C117.159 26.3778 116.811 27.1502 116.114 27.7177C115.417 28.2536 114.466 28.5216 113.262 28.5216C112.09 28.5216 111.14 28.2063 110.411 27.5758C109.682 26.9138 109.254 25.968 109.128 24.7385H100.478C100.488 25.0796 100.511 25.4129 100.548 25.7385C100.744 27.4893 101.322 29.016 102.284 30.3185C103.456 31.8632 105.009 33.0297 106.942 33.8178C108.874 34.6059 111.06 35 113.5 35C116.003 35 118.173 34.5429 120.011 33.6287C121.848 32.7144 123.243 31.4849 124.193 29.9402ZM155.638 17.9393L155.634 17.9467C154.64 19.7134 153.125 21.1162 151.145 22.1694C149.125 23.2437 146.671 23.7524 143.832 23.7524H139.794V35.669H129.668V0.472879H143.832C146.604 0.472879 149.015 0.94851 151.026 1.94891C153.021 2.94144 154.556 4.33291 155.583 6.13109C156.599 7.90795 157.093 9.92718 157.093 12.1599C157.093 14.2437 156.611 16.1765 155.638 17.9393ZM138.794 22.7524H143.832C146.557 22.7524 148.838 22.2638 150.675 21.2865C152.513 20.3092 153.875 19.0325 154.762 17.4562C155.65 15.8484 156.093 14.083 156.093 12.1599C156.093 10.0793 155.634 8.23505 154.715 6.62726C153.796 5.01947 152.418 3.75846 150.58 2.84423C148.743 1.92999 146.493 1.47288 143.832 1.47288H130.668V34.669H138.794V22.7524ZM183.088 34.669L181.092 28.8053H168.641L166.645 34.669H158.138L170.209 1.47288H179.619L191.69 34.669H183.088ZM169.357 29.8053L167.361 35.669H156.71L169.509 0.472879H180.319L193.118 35.669H182.372L180.376 29.8053H169.357ZM226.293 24.3199C225.272 27.444 223.485 29.9479 220.932 31.8317C218.113 33.8809 214.722 34.9054 210.762 34.9054C207.53 34.9054 204.631 34.1961 202.065 32.7775C199.53 31.3273 197.55 29.3255 196.124 26.7719C194.699 24.2184 193.986 21.3023 193.986 18.0236C193.986 14.745 194.699 11.8289 196.124 9.27538C197.55 6.69031 199.53 4.68846 202.065 3.26982C204.631 1.81966 207.53 1.09457 210.762 1.09457C214.722 1.09457 218.113 2.13491 220.932 4.21558C223.485 6.09934 225.272 8.60328 226.293 11.7274C226.399 12.054 226.498 12.3873 226.588 12.7274H217.653C216.988 11.3403 216.037 10.2842 214.802 9.55911C213.598 8.83403 212.219 8.47149 210.667 8.47149C208.164 8.47149 206.136 9.33843 204.584 11.0723C203.031 12.8062 202.255 15.1233 202.255 18.0236C202.255 20.924 203.031 23.2411 204.584 24.975C206.136 26.7089 208.164 27.5758 210.667 27.5758C212.219 27.5758 213.598 27.2133 214.802 26.4882C216.037 25.7631 216.988 24.707 217.653 23.3199H226.588C226.498 23.66 226.399 23.9933 226.293 24.3199ZM195.25 8.79016C193.732 11.5095 192.986 14.5964 192.986 18.0236C192.986 21.4519 193.733 24.5395 195.251 27.2594C196.766 29.9714 198.876 32.1049 201.568 33.6454L201.575 33.6491L201.581 33.6527C204.31 35.1613 207.379 35.9054 210.762 35.9054C214.904 35.9054 218.507 34.8305 221.52 32.6407L221.526 32.6364C224.541 30.4119 226.55 27.3752 227.554 23.5756L227.887 22.3199H217.024L216.751 22.8874C216.166 24.1089 215.347 25.0089 214.295 25.6257L214.286 25.6315C213.253 26.2532 212.057 26.5758 210.667 26.5758C208.424 26.5758 206.676 25.8126 205.329 24.3079C203.978 22.7995 203.255 20.7408 203.255 18.0236C203.255 15.3064 203.978 13.2478 205.329 11.7394C206.676 10.2347 208.424 9.47149 210.667 9.47149C212.057 9.47149 213.253 9.79408 214.286 10.4158L214.296 10.4216C215.347 11.0384 216.166 11.9384 216.751 13.1599L217.024 13.7274H227.887L227.554 12.4717C226.55 8.67211 224.541 5.63536 221.526 3.41092C218.512 1.18713 214.907 0.0945746 210.762 0.0945746C207.376 0.0945746 204.305 0.855816 201.575 2.39798C198.876 3.90891 196.764 6.04599 195.25 8.79016ZM251.574 13.6662V21.9082H240.691V27.1905H253V35.669H230.564V0.472879H253V8.95132H240.691V13.6662H251.574ZM239.691 7.95132H252V1.47288H231.564V34.669H252V28.1905H239.691V20.9082H250.574V14.6662H239.691V7.95132ZM143.214 15.3213C144.631 15.3213 145.491 14.9888 145.993 14.5099C146.507 14.02 146.824 13.2861 146.824 12.1599C146.824 11.0338 146.507 10.2999 145.993 9.80994C145.491 9.33113 144.631 8.99861 143.214 8.99861H139.794V15.3213H143.214ZM143.214 16.3213C144.766 16.3213 145.923 15.9587 146.683 15.2337C147.444 14.5086 147.824 13.484 147.824 12.1599C147.824 10.8359 147.444 9.81131 146.683 9.08623C145.923 8.36115 144.766 7.99861 143.214 7.99861H138.794V16.3213H143.214ZM174.866 10.4103L170.779 22.5633H179.001L174.866 10.4103ZM174.872 13.5311L177.605 21.5633H172.171L174.872 13.5311Z" fill="white"/>
</svg>
